<svg xmlns="http://www.w3.org/2000/svg" width="315" height="315" viewBox="0 0 378 378"><path fill="#00508f" d="M377.914 189c0 104.341-84.583 188.917-188.918 188.917C84.664 377.917.086 293.341.086 189 .086 84.667 84.664.083 188.996.083 293.331.083 377.914 84.667 377.914 189"/><path fill="#e0d7c2" d="M319.5644 188.5088c0 71.85-58.24 130.09-130.083 130.09-71.841 0-130.085-58.24-130.085-130.09 0-71.84 58.244-130.081 130.085-130.081 71.843 0 130.083 58.241 130.083 130.081"/><path fill="#beaf86" d="M142.9379 82.4521c.98.189 2.155 0 2.742.78 0 1.368-2.347 1.175-1.173 2.543.586 0 .781-.78.978-1.368 2.743-.785 1.371 3.525 3.916 3.525 0 1.758 1.565 3.718.975 5.481 0 .587.98.784.59 1.368-.59 0-1.175.39-1.368.784.193 1.566 2.15.39 2.935 1.369 2.935 0 5.48-2.737 9.005-2.153 2.153-.584 4.893-.584 7.048-.584 1.758.781.78 2.346 2.15 3.131-.585.78-1.565 1.368-2.543 1.175-.979-.978-2.154.78-3.132 1.368v.197c0 .587.783.197.978.197.392 1.171-.586 1.368-1.371 1.956-1.172 0-.392-1.566-1.564-1.372-2.548.394-6.461-.584-8.026 2.349-.98-.587-2.155-.193-3.133.197-1.955 1.956.194 4.701-1.76 6.656l.191 2.35c-.778 1.565-2.933 2.937-2.348 4.696.588 2.546-3.521 4.112-.195 6.265-1.175 2.349.588 3.525.195 5.677-.388 0-.388.197-.585.391l.785.587c-.588.197-.98.197-1.372.394 0 .584.587 0 .392.584-.198 0-.59.201-.785.394.587 0 .785.193 1.177.587.193-1.565 1.958-.981 2.935-1.372.781.198 1.173.978 1.958 0 .585.592-.195 1.763.585 2.153.198-2.346 3.525 0 3.525-1.955 1.37.193 2.155-1.763 3.328-.391 1.763-.591 3.72-1.762 5.482-1.372.391-1.368 2.936.781 2.155-1.175l-.785.197c-.197-.197 0-.591-.197-.784.391.193.588-.193.982-.39 0-.395-.199-.781-.591-.983-.194.202-.391 0-.785 0-.193-.193 0-.583-.193-.977 1.957-.978 2.35 1.179 3.525 1.762.392 1.96-2.155 2.157-1.371 3.915-.784.785-.585 2.153-1.762 2.547.195.194.392.391.195.584l-.782.394.195.785c-1.763-.395-3.131 1.956-4.895.978-1.368 1.368-3.915 1.565-5.086 3.327-1.57 1.96-3.525.978-5.287 2.35-.98 0-1.761.193-2.35-.39-1.173.78-2.543 1.368-3.914.973-.977-.193-2.154-.78-1.762-2.152.785-.781-.195-2.149 1.173-2.74-.195-1.175-1.957-.785-1.957-1.956-.785.588-.978 1.956-1.566 2.74-.585.785.781 2.153-.585 2.35.585.583 1.565.391 2.543.785-.781.973.782 3.718-1.565 3.718-1.175-.785-3.33 0-3.918-1.762-.193-1.956 2.155-2.35 1.958-4.306 1.762-2.157.982-6.853 4.895-6.072.392-.197.784-.197.98-.583-1.173.193-1.173-.978-2.153-1.179-.589-1.369 0-2.934-.392-4.503-.197-1.763 2.742-1.565 1.76-3.521.197.193.393-.197.589-.197-.784-.588-.589-1.758-.196-2.35.392-.193.977-.587 1.369-.978-.195-.39-.977 0-.78-.977.388-.978 2.543-.588 1.758-2.153-2.543-1.372-.585-4.31-1.173-6.659.393-1.759-.585-3.328-.585-4.889-1.962.39-3.724.583-5.482 1.175-2.351 0-4.306 1.175-6.461 1.955-1.175-.39 1.958-3.327-.785-1.955 0 .193 0 .78-.782.583-.975-.78.198-1.758.198-2.543 2.152-.588 2.935-3.915 5.675-2.74 2.155-.978 5.675-.978 6.267-3.525.977-.784.193-2.547.388-3.915-2.543-1.955-2.742-5.287-4.305-8.028.197-1.368-.785-2.933-.195-4.502 1.37 1.179 2.74-.978 3.52 1.179"/><path fill="#beaf86" d="M115.0918 139.0722c1.957.386 4.305.193 4.892 2.149-1.372.587 0 1.959-1.172 2.74-2.547-2.153-5.875-.583-8.81-1.171-2.153.588-6.068-1.175-7.438 1.565.192 2.35 1.762 4.893.78 7.441.59 1.367.198 3.717 1.763 4.695-.978 1.372.197 2.74 0 4.31-.978.39-2.351 0-2.741-.982 0-.39.198-.785-.195-.978-.978.978-1.567-.193-2.154-.978.979-.39.196-1.569 0-2.35-.978-.784-.194-2.157-1.368-2.937-.785-2.153.195-4.503-1.765-6.265.59-1.565-1.758-1.565-2.543-2.543-.392.978-1.175 1.372-1.958.781-.39-.194-.784-.391-1.174-.194-.98.588-2.543.588-3.913.785-1.178-.591-3.135-1.372-4.503 0-.588-.197.195-1.372-.588-1.569 1.37 0 2.151-1.57 3.521-1.956 2.155.386 3.525-1.96 5.873-1.372 2.153-.39 4.897-.588 7.245 0l.78-.785-.78-.78c.979-.587 1.76.394 2.545.587 2.153-.977 5.872.781 7.438-1.569 1.565 1.959 4.502-.193 6.265 1.376"/><path fill="#beaf86" d="M123.9018 142.396c-.982 1.959.585 4.112.193 5.875 1.762 2.35-1.763 3.911-.193 5.875-.2.78 0 1.758-.785 2.345 1.37.785-.588 1.566-.392 2.74 0 3.525-3.328 5.481-5.483 8.221.198.39.395.588.395.982-1.568 0-1.958 1.171-2.545 2.153-1.763 1.762-3.718 2.74-5.481 4.502-1.762 1.565-4.896 3.328-5.482 4.893-1.565.781-2.155 1.96-3.133 3.328-1.957-.785-3.522.78-5.289.197.199-1.762 2.547-2.547 3.917-3.722.785-1.955 4.112-2.149 3.332-4.893 1.759-1.762-.392-4.112 1.563-5.678-.977-.78-.783-1.959-1.563-2.937-.2-.785 0-1.565.78-1.762-.392-.978.198-1.561.198-2.346.392-.197 1.173-.587 1.565-.197-.784 1.372 1.37 2.74.195 4.305 1.96.394-.39 2.547.982 3.722-.592.588.585 2.35-.982 1.956-.783.394-.587 1.372-.39 1.959.98.584 1.957-.39 2.742-.977v.193c1.956-.781 3.521-2.35 4.891-3.916.588.198.785-.39.978-.78 1.569-2.157 3.917-3.919 3.722-6.852.39-.978 1.565-2.351.783-3.525-.783-2.741 2.935-3.911 1.564-6.656 1.175-.78.391-2.345 1.568-2.937 2.15-.978-1.37-3.521 1.565-3.521.193-1.372-2.935-2.35-.588-3.134.391-1.566 1.759-.781 1.373.587"/><path fill="#beaf86" d="M110.3916 151.5942c.394.982-.39 1.96.587 2.551v3.525c-.782.386-1.567 1.561-2.739 1.171-1.176-1.171-1.371-2.547-1.176-4.112.59-1.566 1.96-2.548 3.328-3.135"/><path fill="#beaf86" d="m102.956 162.7563-.393.781c-.589 0-.977-.781-.784-1.566.587 0 .977.198 1.177.785"/><path fill="#beaf86" d="M101.7177 228.3193c-2.543.78-5.871.193-8.218.974.977-3.127 1.957-6.458 4.11-9.199-.977-2.345 2.35-1.561 1.565-3.714.393 0 .393.189.588.189-.588 2.157 1.955.592 2.744 1.964 1.171-1.175 2.149.781 3.324.978.589.781 1.762 1.955.782 3.13.785.978-.39 2.933.98 3.525-.785 2.543-3.915 1.565-5.875 2.153m2.35 10.961c-2.545.394-5.088 3.332-7.633 1.372.785-1.569-.195-3.131-.784-4.31-.389-1.565-1.37-3.718.196-4.893 1.173-.583 1.373 1.175 1.763 1.763 1.37-2.938 5.871-.39 7.046-3.718 1.372-.785 2.937 0 1.957 1.758-.782.978.588 1.96.588 2.942-.781 1.955-.781 4.305-3.133 5.086m.982-37.389c.388-.39 1.173-.978 1.758-.588.393 1.368 1.958.785 2.938 1.171.783-.193 1.374-1.368 2.349-.973.2 1.17 2.155 1.565 1.173 3.13-2.545 1.175-4.892 2.941-7.633 3.521-.585 1.569-2.154.398-2.937 1.376 1.179-1.956 2.153-4.897 2.352-7.637m6.848 40.129c1.763.592 1.568-.982 1.96-1.956.195-.192.586 0 .78 0v-.39c2.155-3.718 7.05-3.134 10.181-5.48 2.935-.785 6.46-1.18 8.027-3.92l-2.939-.39c-2.541 2.153-6.066 1.758-8.808 3.525-2.543 1.763-6.068 1.175-8.416 3.131-1.762-.391-2.348 1.175-3.917 1.175-.39-.194-.588-.588-.588-1.175 2.545-1.763.785-5.288 3.135-7.247 4.501-1.171 7.828-4.889 12.723-5.086 1.372-1.956 4.307-.978 4.698-3.521-.585-.394-.585.386-1.175.587-5.48.785-10.178 3.718-15.856 4.503-.98.193-2.347 1.758-3.327.39.98-1.762.587-3.722 1.173-5.48.392-1.175 1.764-1.767 3.134-1.57 1.955-1.367 4.698-.977 6.85-1.955 2.155-1.372 3.915-2.35 6.264-3.328 1.176-.591 3.132-.39 3.724-1.762-2.548-.587-6.267.78-8.225 2.74-.392 0-.197-.39-.197-.588h-2.35c-.783 1.956-4.499.391-5.674 2.346-2.352-.78-4.897.592-7.244 0-1.763-.583-2.936-1.758-2.153-3.911.587-.587.978-1.174 1.957-1.372 1.763.978 2.543-.978 4.111-1.565 2.549-.39 4.892-2.35 6.462-4.7.585-1.368 0-2.933-.197-4.305-1.958-2.543-4.891-.978-7.245-2.346-1.565.978-3.131-.197-4.889 0-1.962 1.368-3.722-.395-5.877.781-2.738-.781-4.5 1.955-7.435 1.372 0 .583-1.57.978-.982 1.951 2.352 0 5.874 0 8.222-.386.785.583 1.763-.587 2.545-.785.39.785.588 1.763.39 2.741-.78 1.762-.585 4.108-.78 6.067 1.177 2.153-1.37 2.153-1.763 3.722-3.327 1.368-3.132 5.283-5.875 7.44-3.915 2.539-.977 6.651-1.369 9.979.587 1.179 1.764-.386 2.74.785-.193.977-.585 2.157-1.563 2.547.587 1.372-.59 2.937.587 4.305 1.171 0 1.37 1.175 1.954 1.955-.783.979.394 2.351 1.176 2.943 1.763-.202 3.916.776 5.483-.785 3.128.583 7.241.385 9.393 2.74-3.325 2.543-4.695 6.462-7.828 8.61-1.372 3.337-5.285 5.091-7.438 7.839-1.764.974-2.547 4.306-5.289 3.525 0 .781.591 1.171.397 2.149.78-.391 1.957.784 2.543-.391.78-.192 1.563 0 2.154.588.785-3.131 4.698-.977 4.893-4.309 2.155-.198 2.352-2.938 4.303-3.912 1.177-.591 3.135 1.171 3.72-.981l6.853-.979c2.155.194 4.696.585 6.265-.981-2.74-.785-5.676-1.368-8.613-1.175-1.37-.781-3.134.39-4.505-.588-.585-1.368 1.568-1.171 1.568-2.349l.977.981c.198-.981 1.175-.784 1.572-.587.78-1.96 2.343-3.525 4.498-3.726 1.956 1.569 3.916-.583 5.873.201.976.583 2.346-.588 3.915-.395 0-.586.198-1.372-.195-1.955-1.567.194-3.523-.785-5.482-.785-2.348-1.171-5.284.197-7.438-1.171 0-2.547-2.545-2.349-3.917-3.528-.389-.387 0-.979.197-1.368.589-.194.977-.978 1.762-.583l-.388 1.758c.193.39.388.587.778.39"/><path fill="#beaf86" d="M153.4814 260.6308c-1.177-.395-1.763 2.157-3.525 1.758-1.173.399-1.957 2.552-3.525 1.381-2.346-.596-3.327 1.758-4.5 3.319-.588 1.763 1.957.784.979 2.547.194.197.586.197.783.588-.589.977-.978 2.349-.392 3.135-1.37 1.757 1.957 3.52-.391 5.089.978.583 1.175 1.956 2.546 1.369 1.172-2.158 3.915-.983 5.675-1.96 1.565-.978 3.525-1.368 5.482-1.763.588 1.175-.977 1.372-1.367 1.96-1.178.394-2.55.977-3.135 2.152-1.37-.192-2.155 1.372-3.72.785l-.59.978c-.585.193-1.173-.784-1.955 0-1.372.588.585 1.569-.588 2.157 1.763.978-1.565 3.323.588 4.498.394.391 0 .983.394 1.372h1.173c.586.978 1.758 1.96 1.958 3.324.782.197 1.174.785 1.76 1.175 3.72-.193 7.045-2.345 10.373-3.911.392 0 1.37-.394 1.37.39 0 .781-.782 1.176-1.37 1.57-1.563.39-2.74 1.951-4.11 2.739-.393 1.369-.98 1.369-1.956 2.154-1.172-.395-1.764.583-2.742.583-.78 1.368-2.35 2.354-3.913 2.354l-.784-.785c-1.568.978-1.371 3.323-3.525 2.543-.586 1.759-2.933.193-3.716 1.759-1.177.393-2.352 0-2.938-.777-2.154-.789-5.677.973-5.872-1.963 1.957 0 2.349-2.149 4.307-1.953 1.763-.981 4.108-1.372 5.088-2.941l-.585-1.762c1.565-.193 1.76-2.345 2.152-3.718.978-1.963-.392-4.113-.587-6.261.195 0 .392 0 .587-.39-.392-.588-.979-.588-1.369 0 .192-.982-.783-1.569-1.373-2.157-1.173.785-2.15.588-3.328.588 0 .78 1.178-.193.785.981-1.567.391-2.155-1.174-3.525.194-.785-.194-1.957-.194-2.348-1.175.196-1.566 1.956-.979 2.545-2.153 1.566.39 3.523-.587 5.284-.978.394-.592.98-1.569 1.762-1.96-1.762-2.35-.585-5.48-1.567-8.221.392-1.178.392-2.547-.586-3.327-1.565 1.759-3.132-.977-4.502.978-1.567 0-2.74-.785-3.328-1.955 3.525-2.938 8.615-.978 12.528-2.938 3.328 0 6.265-2.157 9.593-1.372"/><path fill="#beaf86" d="m262.2343 125.791.808.487c-1.418.487-3.24-1.947-4.654-.487-2.02-1.704-3.235 2.187-5.056 0-1.213 1.947-2.832-.239-4.453 1.217-2.02-1.703-1.817 3.16-3.841 1.456-2.83-1.213-4.449 1.947-7.079 1.217-.408-1.217-.408-2.43-.202-3.89 0-.73-1.013-1.212-.807-1.947l.194.243c.613 0 1.016-.243 1.222-1.212 0 .73.604.487 1.007.487.405-2.921 3.441-1.217 4.249-3.895.404-.73 0-1.456-.607-1.703-.608-.726.201-1.456.407-2.186 0-2.435 1.815-.974 2.627-.244 1.821-3.403 4.451.244 6.879 0 .607-1.46 2.428-1.704 3.033-2.677-1.416-1.943 1.618-3.16 1.416-5.107l.202.243c1.012-.729 1.816-1.213 2.429-2.673.403-1.947-.206-3.894-1.013-5.593-.404-3.895 2.629-5.594 1.013-9.245 1.412-1.456-1.013-1.947.2-3.16-2.225-.973-.813-4.62-3.031-4.863-.809.726-2.839-.974-2.839 1.699-2.02-.973-3.633-1.456-6.063-1.456-.81 2.187-2.633.726-4.045 1.456 0 .244 0 .731.199.974-.608.243-2.022-1.217-2.221.487-1.619.73-3.238.73-4.858.973-1.416-.243 0-1.703-.206-2.434h-.4c-1.215-.73-3.24 0-4.043 1.217-1.014 0-2.634 1.704-3.446 0l.812-1.217c-1.011-.73-2.022-.243-2.626-1.212-.403.482 0 1.943-.403 2.429-.206 0-.409.244-.616 0 .616-1.699-.603-1.46-1.411-1.699-.2-.73 1.212-.974 1.013-1.947-1.821-.978-2.635.973-2.834 2.673.81-.244 1.215.243 1.821.487.405 1.703-2.018 2.433-1.622 4.376-1.41-.73-1.211 1.704-2.833.487-.601.73-.4 2.186-.192 3.164l1.409-.73c.608.243.405.973.405 1.699 1.822.974 1.416 3.651 2.633 5.355 2.021.487 2.021-3.651 4.444-2.921.207-.974-1.006-.243-1.006-1.217 1.818 1.461 1.619-2.916 3.639-1.46 1.008-.726 1.211-1.943 1.414-2.912 3.038 0 5.865 1.699 8.7-.248 3.235-.482 7.079-.73 9.914-1.703.807.73 1.819 1.221 2.422.486 2.839.974 1.623 4.62 2.632 6.811-.202 1.947-.401 3.89-.401 5.594.401.486.808.973.608 1.703.402.73-.409 1.217-.809 1.217-.407.73 0 1.217.4 1.943-1.615-.243-2.43 2.19-3.84 1.947-.809-.73-2.223.726-2.428-.73-4.046 2.19-8.7 1.947-12.949.243-.201.73 1.01.487 1.01 1.461-1.211 0-2.221.969-3.233.486v2.191c-1.417.726.4 2.186-.404 3.16-1.214.243-2.429 1.703-3.44 3.403-.204.973.608 3.164-.606 3.651.203 0 1.01.486.606 1.217.81 1.217 1.011 3.646.608 5.35-.405 2.186-2.429.726-2.63 2.673-1.008.73-.607 2.921-1.008 4.133.801.248 1.414 1.461 2.424.974 1.214-2.917 4.046-.974 5.259-3.403l.607 1.217c.807-1.948 3.233-.487 4.247-2.434 2.631 2.434 3.239-3.16 6.071-.487.202-.974-.608-.487-.811-1.217 1.214-.974 2.83.243 4.454-.487 1.819 1.947 2.83-.726 4.448-1.943 1.215-.973 2.024 1.7 2.83-.247 2.025.973 3.849-1.213 6.273-.483v-.973z"/><path fill="#beaf86" d="M248.9443 126.4375c-.143 0-.264.025-.39.042.137.021.262-.004.39-.042"/><path fill="#beaf86" d="M248.2754 126.5215c.08-.034.185-.029.279-.042-.151-.021-.308-.084-.484-.202Z"/><path fill="#beaf86" d="M248.9443 126.4375c.521 0 1.081.021 1.352-.646.606 0 1.015 0 1.62.486.608-2.433 2.423.244 3.637-.973l-3.841-.243c-1.247-.374-1.89 1.107-2.768 1.376"/><path fill="#beaf86" d="M238.5615 128.9551c2.832-1.464 6.277-1.464 8.904-3.164-3.235 0-6.072 3.403-9.099 1.46.195-.487 0-1.217.398-1.699-1.213.726-.398 2.673-.203 3.403"/><path fill="#beaf86" d="M275.4062 147.1924c-1.007 1.947-3.031 1.947-4.653 2.677l-.603-.973c-2.225.482-4.049 3.159-6.268 3.159-.406.974-.609 1.947-.206 2.921 1.419 1.704 1.009 4.377 2.024 6.319 1.417 2.191-1.215 4.868 1.417 6.329.4 1.699 1.009 3.403 1.412 5.106 2.427-1.464 5.461-1.464 7.286-4.376.406 1.46-1.217 2.912-2.23 3.89-1.007-.491-2.018.969-2.224 1.943 0 1.703 1.014 2.677 1.014 4.137-1.014.239-1.622 1.461-1.622 2.673 1.017 1.217 2.23 1.461 3.038 3.164-.808.978.199 2.673-1.014 3.16 1.419.734.609 2.434.609 3.646-.808 1.465-1.819 2.678-1.616 4.625l.605.726c-1.82 2.92-2.833 6.571-4.249 9.731-.609 1.7-1.416 3.16-2.224 4.377-1.217 2.916-3.842 3.894-5.059 6.567-1.013-.243-1.414 1.704-2.429.973 1.215-4.376 5.262-7.058 6.071-11.917 1.616-3.16 3.032-7.054 4.653-10.457-.813-2.191 1.417-4.625-.609-6.081-1.412-4.133-.604-9.244-2.428-13.134-.803.244-.803.73-1.416 1.217.203.487.41.487.41.969-1.619.491-2.026 2.434-2.433 3.895-3.435 4.376-6.875 8.509-10.112 12.891-2.024-1.218-2.426 3.646-4.246 1.943 0-1.457.603-2.917 1.614-3.891 2.023.487 2.023-2.672 3.038-4.133 2.223-.487 2.223-5.35 4.652-3.89.405-.239.609-.491 1.007-.973-.201-.487-.808-.487-1.213-.487 0-.244 0-.244-.199-.244 1.821-.243 1.617-2.92 2.835-3.65 0-1.943.402-4.377 1.414-5.837-.407-1.457 1.617-1.457.808-3.16 1.622-.731 1.622-2.921 2.225-4.62-.404 0-.603-.487-.809-.731.206-.73.604-1.946-.2-2.673-.814 1.7-3.239-.49-3.438 2.187-2.835.486-5.466 3.89-7.89 3.164-2.024.726-3.646 1.942-5.262 3.647-.403.243 0 .729 0 .973-.403 1.943-.206 3.403-1.62 4.62-1.615-.487-1.416 1.7-2.628 2.43-.808-.239-.808-1.7-1.007-2.673 1.416-2.673 1.007-6.324 1.613-8.758-.606-.239-1.613-1.217-2.426-.487-.406-1.456 1.211-.73 1.82-1.456 1.212-1.704.812-4.376 3.036-4.868 1.416.244 1.416 2.434 2.63 3.164 3.435-2.672 7.887-.973 11.125-3.651 1.215.244 2.427-.239 3.233-.729-.201-1.457-2.222-2.673-.806-3.886-.203-.73.204-2.434-1.013-2.678-1.214.73-1.819-1.947-2.83.244-1.013 0-1.616-.487-2.43.243-.199.487 0 1.217-.404 1.461-1.418-1.218-3.031.486-4.248 0-.807 0-1.615.486-2.627.243.198-1.704-.606-2.92-1.418-3.894l1.418-.974c5.666-.243 10.923-2.186 16.381-2.429 2.832-1.461 6.271-1.704 9.106-2.673.807-.248 1.215.243 1.615.969"/><path fill="#beaf86" d="M269.8574 221.7187c-.399 1.217 1.013.969 1.42 1.947.201.969 1.01 1.943 1.01 3.16-1.616-.244-1.818 2.673-3.842 1.704-.407.482-1.018 1.216-1.62.73-.199-.248 0-.487-.199-.73.405-.488 1.211-.244 1.01-1.218-.406-.973-.811.487-1.217.239.406 1.222-1.415.735-.807 1.948-.608 1.221-2.428 1.221-3.235 2.438h-.609c0-.248 0-.491-.203-.491-.405.73-2.022.73-1.412 2.19.199-.486.402-1.46 1.213-.73-1.823 1.704.402 4.868.402 7.541 2.225 1.46 4.858-.244 7.486.726 2.627-.239 2.426-3.399 4.248-5.103v-1.221c.406.734.608 1.465.406 1.947-.607.247-.812.486-1.013.978 0 .482.607.243 1.013.243.602-.735.81-1.464 1.819-1.221l.199.486h-.601c-.406.974.809 1.948 1.009 2.921.206 0 .405-.243.608.244-1.819-.731-.203 2.917-2.224 2.19.201-.243 1.416-.73 1.009-1.703-1.617-2.435-2.426.973-4.047-.487-1.618-.244-2.426 2.677-4.044.726-.209 0-.605-.239-.605 0 1.414-.482 2.427 2.434 3.64.247.807 1.46 1.821 0 2.63-.247.402-1.213 1.01-.482 1.618-.482.406.243.204.729.204 1.216-1.822.973-4.253 1.217-5.665 3.156-1.822-.965-4.25-2.669-6.075-1.456-.199 1.456-.608 4.624 1.018 5.594 0 .49 0 .973.403 1.22 1.822 0 4.045-1.951 5.462 0 1.212 0 1.414-1.708 2.629-.977 0 1.947-2.025 1.216-2.426 2.19-1.819.486-3.239-1.46-4.656.486.407-1.22-.809-.972-1.212-1.22-.808-.24-.808.734-1.014 1.464l.406.491c-.406.239-1.412-.247-1.616.722.398 2.438.398 3.168-.405 5.116 0 2.676 2.021 3.65 3.032 5.832 4.454 2.195 7.689-2.182 11.735-2.916.404-1.46 1.213-.24 2.02-.483-.199-1.947 2.231-1.465 3.439-1.947-.806 1.456-1.414 3.164-3.232 3.65-1.014 1.696-2.832.974-3.641 2.917-1.823-.243-2.833 2.677-4.654.974-1.213.969-2.633 1.703-2.834 3.164-1.82 1.208-3.436 2.186-5.666 1.947-.199.239-.199.722-.199 1.208.405.731 1.007-.239 1.411-.486.41.247.41.978.41 1.464-2.228 1.704-3.64-3.407-5.465-.978-1.616 1.708-3.637 2.925-5.867 3.408-1.21-.24-2.831 1.212-3.842-.483-1.208.726-1.817.974-2.832-.243-1.412-.491-3.034.243-4.244-.731.199-1.708 2.832.488 2.02-2.19.406-1.217 1.011.239 1.619 0 1.012-1.217 3.437.482 3.238-2.19.199-.24.608 0 .808 0 .205 0 .205.482.402.482.813 0 1.415-.722 1.822-1.452l4.247-.73c1.013-2.19 2.629-3.407 2.024-6.081 1.418-.972 1.011-3.168 2.025-4.628.604.73 1.412-.243 2.224-.243.199-.482.199-.973.199-1.213-.606.969-1.819 1.213-2.423-.244h-.403c-.405-1.46.403-2.433 1.007-3.407-1.618 0-1.211-1.46-2.024-2.434 0-1.459 2.227.24 1.619-1.704-.806-.972-2.627-.243-2.83-1.703-1.014.243-2.833-1.699-3.238.491-1.618.24-4.446 0-5.864.24-1.213-.488-1.821-2.187-3.242-1.213.409-2.191-1.816-3.164-.804-5.108-.807-.972.804-3.164-.807-3.646l.807-2.434c.201 1.213 1.617 1.46 2.225.731.608-.488 1.007-.974 1.007-1.704.405-.244-.199.973.405.973l1.013-.486c0 .486-.604.973 0 1.217.208 2.676-.808 5.349-1.817 7.536 2.828.487 5.659-1.699 8.697-1.943 1.009.487 3.034.487 2.425-1.704-1.212-1.947 1.217-4.377-.807-5.837-1.821-1.216-5.464.731-5.866-2.92-.808-.726-1.818 0-2.424-1.217-.208-.73.201-1.456.803-1.699.613.243 1.415-.244 1.822.482 1.617-1.7 3.64.487 5.464-.482 1.818-1.704 4.045.969 5.665-1.218 2.423 1.461 3.838-2.429 6.069-2.429.808-.735.199-2.195.403-3.164z"/><path fill="#fff" d="M237.6377 203.876c-4.525-5.393-9.425-10.948-14.632-16.605 4.907-5.358 9.827-10.936 14.546-16.55 37.926 3.525 59.894 10.877 59.894 16.584 0 5.698-21.936 13.046-59.808 16.571m29.063 56.889c0 1.162-.23 1.993-.696 2.451-.46.461-1.288.696-2.453.696-9.672 0-36.283-16.432-69.719-47.191 2.071-1.931 4.091-3.849 6.068-5.749 11.326-.214 23.539-.802 35.45-1.83 20.526 24.758 31.35 43.772 31.35 51.623m-152.516 2.455c-.463-.462-.698-1.288-.698-2.455 0-7.851 10.822-26.865 31.348-51.623 11.909 1.024 24.112 1.616 35.438 1.83 2.033 1.964 4.049 3.885 6.068 5.778-38.665 35.597-67.336 51.291-72.156 46.47m-31.446-75.915c0-5.707 21.973-13.059 59.895-16.584 4.725 5.614 9.643 11.192 14.551 16.546-5.21 5.661-10.103 11.216-14.635 16.609-37.873-3.525-59.811-10.873-59.811-16.571m31.446-75.912c4.822-4.825 33.501 10.869 72.178 46.487-2.068 1.927-4.097 3.852-6.071 5.753-11.339.218-23.556.806-35.48 1.83-24.321-29.299-34.661-50.037-30.627-54.07m92.711 59.105c-.543-.545-1.089-1.086-1.639-1.632 9.329.239 18.06.701 26.133 1.33-3.67 4.297-7.61 8.75-11.851 13.353-4.048-4.318-8.268-8.674-12.643-13.051m-19.116-6.953c.776-.738 1.55-1.477 2.31-2.198.772.721 1.547 1.46 2.32 2.198-.776-.008-1.548-.008-2.32-.008-.76 0-1.534 0-2.31.008m-27.133 20c-4.234-4.599-8.179-9.052-11.85-13.349 8.077-.629 16.808-1.091 26.134-1.33-.55.546-1.1 1.087-1.641 1.632-4.377 4.377-8.591 8.733-12.643 13.047m14.292 22.194c-9.324-.239-18.054-.696-26.126-1.326 3.68-4.309 7.637-8.774 11.863-13.37 4.293 4.596 8.544 8.993 12.614 13.06.55.553 1.102 1.095 1.649 1.636m17.471 5.325c-.773.73-1.546 1.473-2.307 2.187-.773-.727-1.547-1.448-2.323-2.187.776 0 1.55.008 2.31.008.772 0 1.544-.008 2.32-.008m27.102-20.021c4.226 4.596 8.187 9.061 11.863 13.37-8.071.63-16.798 1.087-26.118 1.326.55-.541 1.096-1.091 1.639-1.633 4.075-4.07 8.326-8.467 12.616-13.063m-16.239 9.438c-1.845 1.846-3.668 3.638-5.481 5.409-2.532.029-5.088.054-7.702.054-2.604 0-5.16-.025-7.69-.054-1.815-1.771-3.64-3.563-5.486-5.409-4.49-4.494-8.745-8.888-12.768-13.172 4.031-4.301 8.28-8.699 12.768-13.185 1.846-1.851 3.671-3.638 5.486-5.405 2.527-.033 5.084-.058 7.69-.058 2.614 0 5.172.025 7.702.058 1.813 1.767 3.636 3.554 5.481 5.405 4.483 4.486 8.734 8.884 12.769 13.185-4.018 4.284-8.273 8.682-12.769 13.172m62.732-89.088c4.037 4.033-6.303 24.771-30.629 54.07-11.924-1.024-24.138-1.612-35.475-1.83-1.983-1.901-4.003-3.826-6.077-5.753 38.68-35.618 67.358-51.312 72.181-46.487m36.571 75.912c0-11.381-28.657-18.032-61.129-21.276 20.67-25.253 36.228-50.217 28.188-58.261-10.349-10.335-48.605 18.292-79.545 46.654-30.933-28.362-69.193-56.989-79.528-46.654-8.044 8.044 7.514 33.008 28.178 58.261-32.473 3.244-61.123 9.895-61.123 21.276 0 11.372 28.602 18.014 61.041 21.262-18.761 22.996-30.299 42.391-30.297 52.198 0 2.572.738 4.625 2.201 6.081 10.333 10.327 48.57-18.28 79.501-46.634 31.919 29.408 60.772 48.824 73.489 48.824 2.575 0 4.618-.73 6.083-2.199 1.454-1.456 2.191-3.5 2.191-6.072 0-9.807-11.534-29.202-30.29-52.198 32.434-3.248 61.04-9.89 61.04-21.262"/><path fill="#e0d7c2" d="M44.2182 281.6836c-.892-1.482-.097-2.568 2.497-5.833l12.725-16.08-.482-.886-21.083 2.446c-2.876.353-4.19.495-5.371-1.065l-.786.428 3.495 6.395.787-.432c-.525-1.104-1.255-2.669-.057-3.324.502-.277 2.067-.474 4.818-.835l3.879 7.088c-.768.99-2.547 3.273-3.399 3.743-1.041.562-1.381.012-2.606-1.851l-.787.429 5.583 10.205Zm-1.97-19.383 9.272-1.225-5.911 7.365z"/><path fill="#e0d7c2" d="M63.8676 301.4433c-3.961-.234-7.467-1.044-10.294-4.666-5.151-6.588-3.294-13.784 1.996-17.909 5.74-4.486 13.338-3.865 17.974 2.077 1.991 2.547 2.308 5.808 2.879 6.542.596.768 1.391.561 2.319.285l.595.764-6.617 5.17-.554-.709c1.689-2.908 3.141-7.868.621-11.096-3.221-4.129-8.412-1.85-13.195 1.885-1.696 1.321-4.278 3.617-5.273 6.076-1.108 2.777.216 5.346.896 6.219 1.725 2.207 4.234 3.667 8.697 3.953z"/><path fill="#e0d7c2" d="M81.1582 322.8193c-1.311-1.12-.906-2.4.514-6.319l6.939-19.294-.739-.689-19.204 9.038c-2.616 1.247-3.815 1.801-5.432.698l-.607.658 5.348 4.948.607-.663c-.843-.882-2.037-2.128-1.11-3.131.388-.42 1.81-1.112 4.303-2.329l5.927 5.489c-.409 1.179-1.37 3.91-2.024 4.62-.808.872-1.305.457-3.062-.919l-.608.655 8.54 7.897zm-8.038-17.746 8.399-4.112-3.26 8.867z"/><path fill="#e0d7c2" d="m83.3823 325.7734 9.452 6.27c7.696 4.758 14.024 2.237 17.675-3.273 3.057-4.603 3.787-11.611-4.591-17.172l-9.122-6.047-.498.747c1.087.89 2.365 1.829 1.152 3.652l-9.779 14.749c-.735 1.099-1.906 1.578-3.794.323Zm19.135-12.94c.405-.676.873-1.445 2.786-.173 5.143 3.412 1.61 10.235-.197 12.958-4.744 7.155-8.646 7.323-11.995 5.098-1.437-.956-1.349-1.67-.558-2.866Z"/><path fill="#e0d7c2" d="m116.8769 318.8457 18.812 8.657-3.015 6.559-.814-.378c1.378-4.977-.558-6.853-4.962-8.879-1.792-.827-2.438-.966-3.086.437l-3.481 7.561c3.115 1.478 5.168 1.394 7.517-2.426l.846.391-5.071 11.023-.846-.389c1.483-4.26.273-6.006-2.954-7.487l-3.634 7.889c-.663 1.435-.22 2.11 1.896 3.089 3.2 1.473 6.912 2.152 11.236-1.826l.911.42-4.425 6.18-19.075-8.778.374-.813c1.947.658 3.004 1.027 3.934-.996l7.264-15.782c.992-2.152-.348-2.849-1.804-3.638z"/><path fill="#e0d7c2" d="m166.9663 360.7627-11.628-2.619.199-.877c2.149.264 3.187.387 3.708-1.922l3.971-17.649-.069-.017-13.516 19.182-.946-.215-4.111-22.593-.071-.013-3.665 16.282c-.552 2.447-.112 3.429 2.756 4.255l-.199.877-8.191-1.846.197-.869c2.787.37 3.359-.054 3.817-2.089l3.745-16.63c.411-1.822-.109-2.455-2.558-3.19l.2-.877 8.858 1.998 3.282 18.103 10.725-14.947 8.825 1.989-.199.868c-1.989-.298-3.127-.482-3.808 2.53l-3.483 15.477c-.63 2.803.115 3.08 2.356 3.915z"/><path fill="#e0d7c2" d="m187.7378 361.5136-12.553-.546.037-.893c1.948-.092 3.353-.181 3.448-2.401l.749-17.355c.103-2.371-1.58-2.514-3.223-2.691l.038-.897 12.549.546-.034.888c-1.691 0-3.418-.037-3.52 2.401l-.752 17.356c-.094 2.295 1.333 2.472 3.303 2.694Z"/><path fill="#e0d7c2" d="M215.3154 358.8486c-1.71.219-2.388-.943-4.33-4.633l-9.602-18.119-.998.088-6.246 20.285c-.842 2.774-1.236 4.032-3.141 4.482l.077.898 7.258-.63-.079-.893c-1.22.033-2.947.075-3.062-1.281-.048-.574.396-2.093 1.173-4.754l8.044-.692c.602 1.095 1.976 3.647 2.06 4.611.101 1.18-.539 1.272-2.742 1.641l.08.898 11.579-1.003zm-18.535-6 2.612-8.977 4.36 8.376z"/><path fill="#e0d7c2" d="M243.0703 334.7744c-1.385-2.186-4.704-5.455-8.735-4.149-1.777.57-3.328 2.203-2.606 4.422.592 1.846 1.487 2.383 4.818 2.896l5.831.868c1.342.206 4.578 1.348 5.782 5.073.969 3.005.122 7.843-6.164 9.874-3.244 1.045-5.154.382-6.215.722-.712.235-.687.906-.651 1.498l-.986.316-2.727-8.436.99-.314c1.796 3.222 5.029 6.445 9.362 5.04 4.1-1.327 3.179-4.759 3.031-5.204-.738-2.287-2.607-2.589-5.171-2.929l-2.642-.353c-6.741-.91-7.688-3.851-8.203-5.426-.672-2.081-1.112-7.07 5.377-9.168 2.734-.877 4.698-.273 5.69-.587.789-.256.795-.823.753-1.528l1.026-.332 2.396 7.411Z"/><path fill="#e0d7c2" d="m269.1357 341.7949-11.337 5.422-.388-.814c1.676-.999 2.872-1.729 1.915-3.739l-7.486-15.673c-1.025-2.14-2.578-1.477-4.114-.86l-.388-.811 11.338-5.413.389.806c-1.496.793-3.033 1.569-1.984 3.772l7.487 15.674c.992 2.069 2.333 1.553 4.181.83z"/><path fill="#e0d7c2" d="M275.417 337.6826c1.637-1.414 2.323-2.19.988-4.149l-9.592-14.05c-3.055-.91-3.588-.676-3.978-.415l-.504-.735 6.257-4.276 18.923 5.64.06-.037-6.131-8.99c-1.211-1.774-2.238-2.512-4.755-1.053l-.508-.738 6.37-4.351.51.738c-1.958 1.725-1.666 2.53-.7 3.953l11.924 17.461-.828.566-24.16-7.062-.065.042 8.098 11.854c1.456 2.132 2.464 2.275 4.818 1.011l.507.743-6.728 4.595Z"/><path fill="#e0d7c2" d="m311.1337 310.8388-9.188 8.569-.61-.655c1.294-1.451 2.22-2.517.7-4.142l-11.852-12.697c-1.615-1.737-2.9-.638-4.182.411l-.612-.654 9.187-8.573.609.658c-1.183 1.2-2.417 2.405-.753 4.188l11.856 12.703c1.57 1.678 2.691.78 4.231-.462z"/><path fill="#e0d7c2" d="M327.9189 283.874c.714 3.906.758 7.503-2.096 11.107-5.178 6.568-12.603 6.467-17.868 2.313-5.721-4.52-6.911-12.048-2.238-17.961 1.997-2.538 5.094-3.612 5.671-4.352.602-.758.212-1.476-.275-2.315l.602-.76 6.593 5.207-.557.697c-3.228-.944-8.388-1.179-10.929 2.031-3.246 4.108.196 8.615 4.958 12.371 1.689 1.339 4.526 3.303 7.155 3.684 2.963.416 5.14-1.473 5.829-2.345 1.737-2.2 2.559-4.978 1.792-9.383z"/><path fill="#e0d7c2" d="M344.1884 262.9306c-.787 1.539-2.135 1.435-6.271.956l-20.374-2.308-.495.877 13.216 16.61c1.816 2.257 2.633 3.298 1.931 5.123l.778.445 3.586-6.349-.787-.441c-.663 1.028-1.601 2.476-2.791 1.805-.497-.285-1.498-1.503-3.256-3.652l3.968-7.032c1.25.126 4.127.428 4.973.91 1.027.579.742 1.163-.192 3.185l.777.445 5.717-10.13zm-15.42 11.908-5.935-7.221 9.377 1.129z"/><path fill="#e0d7c2" d="M91.1518 59.0537c-.193.155.094.713-.349.751.424.134-.018.961.116 1.33-.002 1.574-.351 3.114-1.177 4.247.038.44-.369.923-.829 1.133-.846.52-1.54 2.018-2.807 1.615-.426-.923-1.039-1.695-1.366-2.694-.652-.424-1.595-1.405-1.055-2.308.386-1.099.925-2.001 1.81-2.866.558-.289.924-1.212 1.752-1.557.521-.73.462-1.787 1.408-2.383.365-.919 1.324-.113 1.828.118.516.847.148 1.766.669 2.614m8.986-5.913c-1.5-.696-2.902-1.465-4.19-2.484.038-.344.191-.944-.229-1.079l.076.097c.688 1.653-1.328.902-2.098 1.519-1.96-.482-3.653-.235-5.407.533-1.347 1.074-3.462 1.976-4.366 3.802-.907 1.041-.676 2.908-2.447 3.055-.193-.634-1.135-.827-1.133-1.616-.671-.251-1.307-.848-2.058-.407-1.343-1.288-2.904.114-4.286-.042l-1.178 1.095c-2.018.038-2.001 2.233-2.578 3.479.118.537-.057 1.31.42 1.712 1.137.042 1.907 1.003 2.731 1.448 1.079-.231.98 1.423 1.903 1.003-.002.784-.253 1.46-.503 2.131-1.175 1.096-1.618 2.711-2.942 3.614-.621 1.598-2.832 2.576-2.505 4.363.113.538 1.057.731 1.649.886l-.055-.268c1.268-.386 2.461-.072 3.771-.017 1.403-.017 1.844-1.633 2.868-2.132.017-.961.98-1.729 1.173-2.673.577-.462.999.461 1.307.848.693.868 1.324 2.249 2.21 2.962.152.982-.558 1.868-1.176 2.673.095.714-.002 1.578.361 2.233 1.482.868 2.696-.575 4.079-.42 1.02.289 1.654.886 2.172 1.733.459 1.364 2.461 1.503 2.402 2.807l.346.042c.846 1.058 2.189 2.35 2.285 3.849.52.847 1.444.423 2.096.847.481-.386 1.347-.286 1.175-1.095 1.903-1.364.85-3.672.523-5.46-.651-1.212-.321-2.576-1.708-3.52.212-.328-.271-.734-.422-.928-.518-.847-.841-1.846-1.825-2.48-1.039-.117-.479-1.191-1.421-1.384-.711-.697-1.384-1.733-.921-2.736.999.465 1.154-.919 1.922-.747.426-.655 1.292-1.343 2.214-1.767.772-.617 0-1.578.35-2.329-.829-1.229.596-2.207.713-3.248.848-.516.101-1.653.923-1.997-.111-.542.62-.81.754-1.23-.155-.982.904-1.036 1.385-1.422 1.865.558.807-1.75 1.754-2.346-.078-.097-.173-.021-.173-.021-.136-.365.134-.42.328-.575.094-.864.634-1.77-.269-2.308"/><path fill="#e0d7c2" d="M77.518 77.5044c-.655-.419-1.364-.327-2.077-.23-1.173-.483-2.346.616-3.695.113-.808.172-1.653.692-2.572.323-1.102.403-1.66 1.481-1.698 2.614.097.709.749 1.138 1.345 1.288 1.213-.65 1.578.793 2.539.81.825-.344 1.517.52 2.192.772 1.903.214 1.69 2.904 3.649 2.602 1.484.076 2.73 1.443 4.192.906 1.135-.746.85-2.098 1.236-3.193-.25-1.691-1.42-2.173-2.44-3.252-.384-1.267-2.306-1.309-2.671-2.753"/><path fill="#e0d7c2" d="M133.8046 32.5708c-1.139 1.062.076 4.024-2.188 4.108-.776-1.406-1.123-2.463-1.402-3.961.407-.592.435-1.418 1.006-1.947.958-.575 1.197-2.715 2.76-1.666.787 1.129-.738 2.232-.176 3.466m-6.431 7.264c-.293.541-.751 1.024-1.313 1.279-.703-.356-.661-1.456-1.265-1.585.151-1.155-1.309-1.977-.882-3.123.114-.05.273.013.385-.042l-.049-.109-.378-.23c.508-.374 1.234-.567 1.876-.047.787 1.129.951 2.678 1.626 3.857m25.625-9.4c-.407-.894-1.101-1.528-2.151-1.452-1.139 1.062-2.794-.482-3.615.974-.723.193-1.388.226-2.155.033-1.512.831-3.715.755-4.71 2.426-.948.293-1.701 1.317-2.851 1.166-.372-.508-.401-1.171-.382-1.724.336-.152.877.147.957-.571 1.051-.071.505-1.855 1.617-2.09.265-1.204.361-2.467-.262-3.538-.734-1.015-1.662.219-2.535.076-.776.084-.757-.466-1.013-1.028-.982-.365-1.722.382-2.61.512-.365.982-1.66.218-1.859 1.259-1.286.449-1.559 1.93-2.402 2.45-.39.042-.877-.142-.806-.579-.155-.335-.419-.621-.082-.772-.208-.449-.512-1.12-1.167-1.368-.52-.843-1.529-.382-2.24-.461-1.561.44-3.303 1.368-3.697 3.177.073 1.048 1.502 1.208 1.917 1.829 1.419.436.657 1.733.292 2.71-.944.299-.292 2.032-1.647 1.432-.161-.063-.325-.122-.214-.172-1.173.398-2.052-1.23-3.12-.609-.784.357-1.517.831-1.659 1.703.186 1 .251 2.326 1.393 2.753 1.16-.125 1.886 1.167 2.864 1.532.289 1.225 1.326 1.423 2.247 1.951-.019.555 1.062 1.142.43 1.834-1.118.512-1.586 1.272-2.759 1.666-.965.848-2.342.802-3.412 1.423-.7 1.133-2.331.529-2.931 1.88-.959.575-1.445 1.88-2.083 2.849.317.399-.101 1.263.723 1.297.441.067.626 1.065 1.031.474 1.572.772 3.08.222 4.589 1.154 1.745.558 2.779-.726 3.596-1.914-.154-.336-.197-.722.09-.986-.634-.797.627-.697.434-1.418 1.781-.541 1.563-2.207 3.085-3.034.772-.084.812-1.184 1.382-1.716.344-.428.743-.743 1.333-.336.186.999.484 1.947-.044 2.866.474 2.22-1.912 2.631-2.092 4.607-.978 1.121-1.127 2.275-1.941 3.458-1.068.625-.946 1.784-1.853 2.472-.564 2.018-3.195 1.594-4.028 3.327.033.663.002 1.49.598 1.897 1.202 1.75 2.606-.516 4.072.034.244-.655.814-1.188 1.058-1.838.999-.185 1.3-.999 1.659-1.704 1.601-.054 1.729-2.144 3.227-2.421 1.06-.349.554-1.746 1.503-2.04.023-.553.694-.86.713-1.409l.325.121.122-.327c.417-.864.73-1.955 1.307-2.765-.141-.609.642-.966.225-1.587.192-.767.006-1.762.096-2.757-.166-1.548-1.33-2.908-1.219-4.448.495-1.582 2.113-2.186 2.883-3.755.382.235.675-.306 1.011-.462 1.265.101 1.637-1.154 2.915-1.33.026-.823.721-.198 1.017-.735 1.416.437 2.574-1.179 3.974-.189.548.018.124-.327.294-.541.48.453.837-.252 1.376.046 1.783-.541 3.619.513 5.145-.587.459-.483 1.397-.504 1.749-1.204.299-.546.542-1.196.836-1.738-.756-.465-.401-1.17-.546-1.783"/><path fill="#e0d7c2" d="m146.6416 43.4936-.214-.176.113-.051c.113-.05.05.114.101.227m-7.151-.256c-.227.105-.216-.172-.264-.281.667-.306.849-.797 1.525-1.104-.562.256-.325 1.368-1.261 1.385m8.84-2.279c-1.366-.318-2.638-.147-3.966-.079-1.62-.885-3.074 1.267-4.687.109-1.311 1.276-3.29 1.095-4.857 1.808-1.089 1.18.696 2.124.994 3.068 2.407.528 4.335 2.081 6.813 2.17.59.406 1.651.058 2.018.57l.506-.369c.218.172.877.138.533.57.927.253 1.745.554 2.608.974.321.395.749.738 1.248.651l-.124.323.112-.05.061-.165c.654.244 1.124.978 1.949 1.008.388-.042 1.439-.113 1.569-.718.837-.248.323-1.364.995-1.674.537-2.682-2.126-3.768-3.208-5.842-.483-.457-1.196-2.026-2.564-2.354"/><path fill="#e0d7c2" d="M197.5888 25.0595c-.241-.122.006-.37.006-.491.245.004.245.121.365.126 0 .369-.12.247-.371.365m-2.34.113c-2.715 1.217-4.284-4.582-6.764-1.515-.004.986.235 1.972.229 2.954-.376.982-1.23.244-1.971.483-.74-.004-1.237.856-2.098.726-.992.856-1.966-1.116-2.956.109-.124-.126-.124-.126-.246-.126-.127.248-.127.369-.375.86-.619.735-1.605.978-2.472 1.096-.363-.126-.363-.495-.608-.743.369-.122.247-.86.743-.734-.248-.248.002-.617.002-.865.249-.243.126-.243.127-.491h.126l.12-.121c-.241-.248.372-.366.376-.613.61.247.864-.487 1.233-.735.374-.486.5-1.225.875-1.716.002-.864-.61-1.481-.235-2.341.493-.86 1.232-.362 2.094-.852 1.358-.235 2.338 1.368 3.695.268.374-.49 1.244-1.594 1.482-.113.856.374 1.346 1.481 2.33 1.49.487.495.741-.491 1.106.004.984.499.99-.609 1.853-.726.004-.247.124-.373.004-.491.493-.122.982-.122 1.356.126-.13.743.608 1.729.104 2.467 0 0-.245 0-.245.122.491.369.119.982.115 1.477m-16.183 9.265c-.617.122-.491-.738-.732-1.233.126-.982 1.356-.852 1.979-1.347.484 1.238-.504 1.85-1.247 2.58m28.14-10.801c-.983-.495-2.092-.503-3.082-.139-.862.24-1.848.605-2.463-.259.013-2.342-2.698-1.742-3.922-2.854-.614-.621.374-.986.621-1.477.247.126.252-.244.252-.491h.244c.858 1.486 1.85-.357 3.082.143.248-.613.982-.118 1.236-.73.373-1.478-1.096-2.594-1.953-3.832h-.736c-.494-.008-.987.361-1.358.483-.856-.747-1.605.235-2.588.109-1.48.856-3.081 1.46-4.569 2.069-.613-.004-1.23-.009-1.718-.504l.371-.243-.245-.373-.126.369c-.122.121-.122 0-.244-.126-.617-.248-.988.243-1.355.365-1.112.365-.997 1.469-1.373 2.329-.977-.865-1.833-2.35-3.311-2.849-1.479.36-3.201.721-3.95 2.194-1.473-.252-2.587.848-3.947 1.33-.988.739-2.096-.008-2.832-.629-1.475.118-2.835.848-4.071 1.578-.125.491.12.864.239 1.233 1.836 1.859 3.8 3.345 6.136 3.852.738.496.239 1.23.236 1.973-.616.365-.749 1.72-1.856 1.465-1.606.729.478 2.467-1.125 3.445-1.362 1.099-1.377 3.193-3.225 3.676.237 1.477-1.491 2.576-2.112 3.558-1.967-.873-2.839.969-4.199 1.825-.002.491-.004.987.237 1.477.367.252.858.748 1.477.5.365.743.978 1.607.969 2.472-.006 1.229 1.351.994 2.088 1.363 1.108.252 1.238-.978 1.977-1.343 1.353.5 1.242-1.346 2.226-1.464.994-1.843.644-4.923 2.742-6.143 1.225 1.485.353 3.575 1.45 5.06.124.122.739.617.491.743.491.247 1.233-.365 1.727-.239.367-.122.495-.617.373-.982.497-.861.378-1.846.508-2.833.245-.243.497-.86.986-.486 1.357.134 1.242-1.716 2.593-1.339.5-.491 1.853-.482 1.368-1.716.128-.987-1.475-.873-1.101-2.103.13-.486.38-1.103 1.12-1.221-.241-.99 1.356-.486 1.116-1.594.863.126 1.975-.236 2.707.503.365.743.85 1.855.233 2.59-.388 2.584-.647 5.291-2.138 7.376-.13.861-.992 1.352-.873 2.212-.011 1.846 1.846.382 2.704.755l.007-.495c1.609-2.329 4.454-4.285 4.104-7.734.747-1.103.883-2.828.761-4.057.128-.739-.117-1.356-.111-2.221.124-.243.128-.981.621-.734l-.119-.617c.491-.121.126-.369.369-.738.252.004.619-.239.745.008.117.613.737.248.98.252-.243.244-.25.613.119.734-.254 1.234-.258 2.833-.64 4.067 1.108.738-.014 2.337.852 3.201-.388 2.338-.52 4.432-.044 6.652.12.985-1.109 1.103-.996 2.089.862.743.727 1.851 1.836 2.472.367-.122.734.13.979.373.376-.121.866.009.986-.487.867.378 1.119-.73 1.977-.603-.359-1.725 1.252-3.072.89-4.797-.49-.621.006-1.355.133-1.972-.975-1.608.386-3.076-.091-4.801-.614-.99-.241-2.094-.236-3.08-.484-1.234-.6-2.715-.469-4.066.006-.495.621-.735 1.114-.613.245.126.243.495.367.621.618-.86 1.597.499 2.58.508.986-.365 2.34-.235 2.717-1.586.009-1.234.137-2.338-.468-3.454"/><path fill="#e0d7c2" d="M231.4755 34.8369c.816-.315 1.312.986 2.163.285.575.529.802-.587 1.222-.935.342.146.941.008 1.03-.488.424-.352 1.113-.99 1.676-.742.522-.575 1.434-1.112 1.498-2.165-.514-1.574.762-2.623.8-4.226l-.19-.487c-1.867-2.174-3.847 1.389-6.091.667-.935 1.2-2.097 2.3-2.811 3.605-1.149.159-1.024 1.695-1.71 2.337-.439 1.289 1.71 1.297 2.413 2.149"/><path fill="#e0d7c2" d="M245.2939 40.4302c-.824.042-1.802.415-2.549-.323-.327-1.087-1.14-1.985-.756-3.164.265-.286 1.091-.323 1.065-.873-.186-.487.74-.751.662-1.187.25-.567 0-1.213.59-1.628.111.05.336.15.548-.026.562.248.035.827 0 1.213-.548 1.238-2.321 2.203-1.421 3.815.885.126 1.2.935 1.97 1.011.124.327.315.814-.109 1.162m14.639 22.266c.623-.802.898-2.027.522-3.001-.31-.814-1.164-.113-1.575-.701-1.089-.889-.328-2.299-.217-3.462.855-.7.137-1.825.15-2.765.566-.961.95-2.136.626-3.222-.272-1.205-1.176-1.603-2.126-1.889-.664-.025-1.361.336-1.677.739.592 2.01-.745 4.112-.619 5.652-.711 1.301.5 2.509-.489 3.823-.575.688-1.127-.5-1.826-.134-1.124-.5-1.964-.739-3.086-1.238-2.188-2.052-5.426-.521-6.556-3.449-.517-1.574.749-2.9 1.81-3.777.017-.94.888.126.963-.651 1.401-.726 2.564-1.825 4.09-2.228.426-.348.293-.948.212-1.389-.288-1.473-1.799-2.01-2.892-2.9-.035-.822-1.034-.998-.913-1.888.277-1.221 1.639-.348 2.239-.482.527.633 1.038.994 1.977 1.006.486-.184 1.611.315 1.562-.784.013-.94-.788-1.565-.992-2.325-1.085-.89-3.082-.025-3.489-1.553.143-.612 1.381-1.275.842-2.186.26-1.502 1.898-.642 2.863-1.292l.124.327c.109.055.212-.176.323-.126.116.051.391.038.401.315.841.235 1.515.537 2.09 1.061.65 2.174-2.23.764-2.6 2.212-.249.562.151.877.391 1.25.835.24 1.435 1.314 2.524.991.203.759.99-.101 1.225.273l.252.65c.299.537.834.239 1.273.16.697-.361 1.704-.185 2.577-.336.598-.139.57-.688.775-1.141-.364-.697-.28-2.409-1.438-2.522-.088-.714-1.054-1.276-.754-1.952l.051-.113-.111-.051-.048.114c-.691-1.788-2.915-2.237-4.233-3.223-.65.252-1.384-.214-2.213-.176-.472-.747-.17-1.423.065-2.262.436-1.288-1.491-1.2-1.164-2.539-.29-.26-.563-.252-.645-.688-1.334-.323-2.497-.437-3.686-1.099-.598.138-1.362.34-1.721.851-.566.966.723 1.402.599 2.292.362.696.786 1.56.551 2.4-1.172.826-2.824-.315-4.057-.864-.897-.126-1.184.826-1.77 1.237l.341 1.368c.658.021.474.748.653.957-.316 1.616-1.568 2.006-2.629 2.879-.899.814-3.051.806-2.538 2.375.349.428 1.012.453 1.389.214.848.512 2.338-.714 2.462.826.103.987-.875 1.364-1.511 1.889-.489.185-.94-.017-1.492.012-.583.412-1.171-.39-1.772-.247-.974.373-2.114-.403-3.15-.189-1.324-.05-2.713-.264-3.848-1.036-.715.088-1.57-.424-2.329-.227-1.026 1.704 1.212 2.43 1.548 3.789 1.498.26 2.065 1.725 3.557 1.713.562-.961 1.599.037 1.882-.915.791.352 1.595-.24 2.477-.114.336.151.464.474.314.81-1.184.554-2.21 2.254-3.878 2.056-2.149 1.201-4.65.764-6.821.202-.701-.848-1.705.189-2.522.231-1.224 0-1.989-1.293-2.954-1.855-.793-.349-1.719-.084-2.178-.558-.313.398-1.106.046-1.525.398-.867.424-.202 1.666-.791 2.073l.115.051c.103-.223.279-.009.336.151-.54 1.515 1.613 1.527 1.937 2.614 1.628-.625 2.565.6 3.969 1.087 1.06.335 2.149.008 3.24.902.547-.029 1.074-.604 1.521-.407.85 1.729 2.251-.214 3.388.562.84.239 1.49-.012 2.166.29.513-.852 1.648-.075 1.827-1.078.772.075.835-.978 1.546-1.062 1.45.373 1.536-1.339 2.274-2.09.716-.088.964-.651 1.331-1.162 1.309-.227 1.506-1.889 2.343-2.867.827-.037.951-.922 1.878-1.187.646-.252.802.626 1.236.55.277 1.2-1.074 1.813-1.416 2.874-1.817 2.291-3.277 5.279-4.581 8.204-.163 1.28 1.191 1.876 1.668 2.627 1.585.977 2.489 2.585 4.487 2.937 1.052.059 1.916.848 2.93 1.301 1.37 1.15 3.326 1.611 4.696 2.757 1.332.055 2.407.663 3.565.776.686.575 1.217 1.213 1.416 1.977.239.373.963.558 1.337.323.38-1.448 2.223-1.976 1.926-3.726"/><path fill="#e0d7c2" d="m304.1914 65.499-.239.961c-.695.189-1.377.726-2.172.306-.621-.424.241-.788.057-1.309.692-.361 1.819-.47 2.354.042m-31.018-.579.003.172c.346-.18.963.243 1.305.063 1.307-.118 2.688-.667 3.27-1.985 1.018-1.414 1.681-2.996 3.06-3.722.943-.978 1.949-2.74 3.44-2.161 2.271.302.508 3.563 2.702 4.125.597-.273 1.145.759 1.827.05.625.768 1.672.923 2.623.642 1.219-.025 2.242-1.091 3.098-1.809.252-.264.699-.012.706.336 1.141.235 1.6 1.536 2.223 2.308.439.076.428-.449.519-.537l.787.42-.177.004c-.247.269-.78.105-.767.625.786.071.281 1.129 1.151 1.108-.159.701.462 1.125.476 1.817-.681.713-1.737.386-2.522.319-.371-1.217-1.942-1.356-2.662-2.388-.965-.415-2.13-2.043-2.799-.638.108.957.302 1.998 1.272 2.413.197 1.217 1.498.928 2.297 1.519.606-.101.971.764 1.492.755.268.257 1.307.06.975.764.695-.188.972.592 1.574.487.791.076 1.119-.806 1.456-1.335.342-.18.873-.016 1.212-.373.089.26.707.336.544.861l.168-.177c.703.16 1.314.407 1.926.483l.007.172c.791.592 1.33 1.456 2.381 1.607.365.688 1.145.583 1.594 1.183.967.592 1.637-.642 2.067-1.258.327-.882-.634-1.121-.826-1.814-.446-.427-.024-1.221.583-1.317.164-.524-.028-1.217-.296-1.649-1.049-.151-1.931-.659-2.726-1.427-.053-2.262-2.639-.99-3.451-2.451-.477-1.997.682-4.98-1.697-6.24-2.806-.985-1.335 2.817-2.709 3.719-1.049-.156-2.196-.915-3.173-1.855-.01-.521-.113-1.129-.56-1.557-.531-.336-.969-.76-1.666-.571-.499 1.054-1.527 1.771-2.65 2.405-.87.021-1.809.818-2.693.142.155-.872-.477-1.993.38-2.706 1.204-.722 2.848-1.015 4.084-.172.79.071 1.473-.642 2.162-1.003.421-.617-.288-1.301.044-2.006-.221-2.43-2.669-2.904-4.094-4.268-2.436.223-3.976-2.79-6.418-2.916-3.901.864.51 3.559.115 5.573.292 1.3 1.697 1.968 2.665 2.555.004.177.185.52.006.525.183.168-.067.608-.239.789-.693.188-1.37 1.07-2.167.654-.811-1.464-1.452-2.933-2.782-4.037-1.318-.583-1.715 1.255-2.401 1.792-1.37.898-1.677 3.172-3.231 3.727-1.255 2.723-5.138 4.284-6.122 7.268.541.86 1.682 1.095 2.634.99"/><path fill="#e0d7c2" d="M290.6855 69.6069c0-.348.079-.608-.186-.864.171-.005.442.252.528.512-.166.176.184.344.277.428-.17.352-.352.008-.619-.076m10.814 21.464c.761-.973 1.001-2.111 1.063-3.071.336-.701.407-1.314 1.194-1.591 1.286-.637.825-1.934 1.681-2.824-.195-1.037-1.324-.927-2.117-1.347-.862.541-1.813.823-2.231 1.787-1.732.382-2.389 2.313-3.942 3.043-.17.176-.7.013-.866.193-.603.445-1.31-.059-1.922-.311-.815-1.464-2.239-2.824-3.901-3.226-.184-.521-.541-.861-.982-1.113-.875-.159-1.323-.755-2.198-1.087-1.41-.667-.651-2.164-.592-3.297 1.034-.37 1.443-1.684 2.753-1.624.09.084.266.079.178.167 1.229.323 2.716.902 3.564-.331.155-.877-.207-1.742-.488-2.518.417-.789-.636-1.293-.04-1.914.241-.964.864-.193 1.295-.81.616.596 1.16 1.629 2.112 1.348 1.326.579 1.354 2.152 2.252 3.176.43-.096.436.424.788.592.267.084.624.6.88.155.61.252.952.072 1.382-.373.562-2.191-1.393-4.067-3.147-4.725-2.031-1.264-3.965-2.27-5.992-3.362-2.47-1.514-4.933-2.685-7.148-4.469-1.308-.059-2.22-2.131-3.595-1.229-1.37 1.246.473 1.989.327 3.214.557 1.729 2.287.999 3.431 1.758.963.244 1.587.84 2.291 1.347.179-.004.348-.357.611-.1l.004.172c-1.815.65-4.18.088-6.173.39l-1.231-.323c-2.611.231-5.323-.499-7.944-.97-1.046.026-2.111-.998-3.134-.109-.424.622-.67 1.411-.572 2.191.71.508.21 1.565 1.092 1.892.344-.008.52-.008.862-.192.523-.009 1.124-.458 1.398.146.205 1.389 1.579.491 2.454.647l.267.255c.694-.012 1.302-.113 1.993-.302.785-.1 1.158 1.28 2.195.567.848-1.238 2.184.562 3.3-.072.621.248 1.479-.289 2.099.135l1.999-.135c.862-.364 1.649-.466 2.345-.306.274.605-.336.877-.585 1.318-1.726.562-3.271 1.813-4.731 2.799-.685.537-.573 1.666-1.085 2.37-.722 3.068 1.763 5.103 3.636 7.244.71.856 1.855 1.271 2.054 2.484 1.234.671 1.785 2.228 2.938 2.987 1.067 1.196 2.4 2.476 3.39 3.936.795.768 1.829.051 2.874.03.87-.021 1.283-1.158 2.156-1.179.849-1.062 2.486-1.88 1.758-3.433"/><path fill="#fff" d="m159.1357 309.6094-14.664-4.65.271-.847c4.519 1.477 5.075.143 5.767-2.043l4.302-13.55c.279-.873.772-2.426-.754-2.908-.547-.177-2.009-.177-3.488-.139l.291-.919 11.074-.705.665.21-6.368 20.059c-.749 2.362-.701 3.424 3.173 4.649Z"/><path fill="#fff" d="M168.3779 312.1025c12.36.055 18.827-6.45 19.46-13.139.844-8.825-4.636-11.46-8.314-11.808-7.353-.696-9.497 5.405-9.686 7.389-.597 6.329 3.842 8.154 6.662 8.418.734.076 1.351.093 1.977.042.616-.012 1.206-.142 1.844-.378-2.74 6.752-7.696 8.17-11.85 8.515Zm7.86-18.988c.279-2.905.493-5.221 2.988-4.99 2.53.248 2.929 2.581 2.242 9.824-.079.847-.503 2.698-.683 3.273-.07.289-1.188.369-1.839.306-2.821-.264-3.21-3.122-2.708-8.413"/><path fill="#fff" d="m211.0693 311.3515-16.956 1.942-.096-.843c5.877-7.104 10.254-12.509 9.756-16.844-.121-1.027-1.195-4.615-5.392-4.133-.938.105-3.436.616-4.593 3.869l-1.141.134c.571-2.182 2.362-7.855 8.109-8.518 2.527-.286 7.686.419 8.326 5.997.124 1.061.445 3.851-3.749 8.383l-5.95 6.409 6.157-.705c4.318-.5 4.639-.907 5.5-3.534l.979-.109Z"/><path fill="#fff" d="M223.4443 302.3164c-.869-2.556-.416-3.919.214-5.883 3.179.676 6.212 1.33 7.182 4.193.308.91 1.382 4.094-2.074 5.265-2.523.857-4.472-1.061-5.322-3.575m-1.742-20.117c-6.221 2.102-7.818 5.959-6.716 9.216.986 2.903 4.19 4.191 7.607 4.669-2.357 1.625-5.117 4.075-3.835 7.885 1.308 3.848 5.917 4.549 10.114 3.131 5.559-1.88 8.216-5.82 6.73-10.193-1.101-3.252-4.412-4.86-8.365-5.51 1.926-1.351 4.649-3.676 3.641-6.646-.674-1.997-3.267-4.545-9.176-2.552m-2.505 5.137c-.482-1.436.325-3.265 2.224-3.908 2.878-.977 4.303 1.314 4.906 3.098.711 2.094.293 3.172-.236 4.557-.444-.042-5.798-.492-6.894-3.747"/><path fill="#00508f" d="m166.2275 239.4101 11.632-12.32 29.091 27.305c3.284 3.11 3.35 8.388.134 11.787-1.5 1.595-5.843 6.156-5.843 6.156s-4.175-3.97-5.925-5.618z"/><path fill="#00508f" d="M175.3125 119.3921c-3.743-3.689-4.114-9.374-.831-12.711 1.469-1.49 5.946-6.034 5.946-6.034s4.709 4.637 6.775 6.672l26.246 26.185-11.89 12.069z"/><path fill="#00508f" d="m191.7597 155.4463-12.586-11.884-11.645 12.333 12.582 11.884Z"/><path fill="#00508f" d="m190.6225 197.0024-12.581-11.888-11.648 12.333 12.584 11.884Z"/><path fill="#00508f" d="m211.833 174.5395-12.583-11.88-11.646 12.329 12.582 11.88z"/><path fill="#00508f" d="m211.1367 216.5107-12.585-11.884-11.641 12.329 12.581 11.884Z"/><path fill="#2480ab" d="M217.124 150.1299c3.605-3.815 3.771-9.513.374-12.723-1.523-1.444-6.158-5.817-6.158-5.817s-4.536 4.801-6.534 6.912l-41.004 43.419c-3.605 3.814-3.77 9.517-.369 12.727 1.592 1.507 6.19 5.812 6.19 5.812s4.578-4.876 6.5-6.907z"/><path fill="#2480ab" d="M216.8281 109.9883c3.496-3.701 3.571-9.303.17-12.518-1.523-1.435-6.157-5.816-6.157-5.816s-4.399 4.658-6.328 6.702l-39.746 42.08c-3.493 3.701-3.569 9.307-.166 12.518 1.593 1.506 6.188 5.807 6.188 5.807s4.439-4.725 6.296-6.689z"/><path fill="#2480ab" d="M216.4336 192.0967c3.605-3.818 3.768-9.513.367-12.727-1.52-1.44-6.157-5.816-6.157-5.816s-4.534 4.805-6.527 6.911l-41.009 43.423c-3.605 3.819-3.77 9.518-.369 12.731 1.592 1.503 6.189 5.808 6.189 5.808s4.578-4.88 6.496-6.906z"/><path fill="#2480ab" d="M215.9179 233.0527c3.491-3.701 3.564-9.303.17-12.518-1.525-1.431-6.164-5.815-6.164-5.815s-4.399 4.657-6.328 6.701l-39.741 42.088c-3.498 3.701-3.574 9.304-.168 12.514 1.592 1.507 6.189 5.807 6.189 5.807s4.436-4.724 6.297-6.688z"/></svg>