<?xml version="1.0" encoding="UTF-8"?>
<svg xmlns="http://www.w3.org/2000/svg" xmlns:xlink="http://www.w3.org/1999/xlink" width="248pt" height="254pt" viewBox="0 0 248 254" version="1.1">
<g id="surface1">
<path style=" stroke:none;fill-rule:nonzero;fill:rgb(13.72549%,9.411765%,8.235294%);fill-opacity:1;" d="M 204.933594 138.097656 C 201.074219 142.421875 195.425781 145.304688 188.949219 145.304688 L 183.851562 145.304688 C 179.855469 145.304688 176.480469 142.078125 176.34375 138.097656 L 204.933594 138.097656 M 81.691406 138.097656 C 76.453125 141.046875 70.460938 142.832031 63.984375 142.832031 C 60.746094 142.832031 57.507812 142.488281 54.480469 141.734375 C 51.859375 140.980469 49.378906 139.742188 47.246094 138.234375 Z M 28.371094 138.097656 C 34.363281 149.421875 46.351562 157.113281 59.921875 157.113281 L 60.539062 156.972656 C 78.519531 156.972656 94.777344 150.109375 106.972656 138.917969 L 107.316406 138.4375 C 117.441406 164.046875 123.296875 191.710938 124.261719 220.679688 L 124.539062 220.679688 C 125.640625 192.808594 131.152344 166.035156 140.175781 141.046875 C 140.519531 140.15625 140.796875 139.195312 141.277344 138.300781 L 161.601562 138.300781 C 161.738281 150.519531 171.589844 160.199219 183.851562 160.199219 L 189.5 160.0625 C 204.105469 159.925781 216.574219 150.863281 221.949219 138.300781 L 240.824219 138.300781 C 238.550781 157.867188 231.453125 175.988281 220.707031 191.296875 C 220.570312 191.160156 220.226562 190.957031 220.085938 190.816406 C 196.734375 174.410156 169.039062 164.046875 139.074219 161.4375 C 138.453125 163.566406 137.972656 165.691406 137.351562 167.753906 C 166.835938 170.019531 194.253906 180.316406 216.988281 196.515625 C 209.617188 205.851562 200.867188 214.089844 191.152344 220.75 C 173.519531 209.695312 153.058594 202.96875 131.082031 201.9375 C 130.808594 203.929688 130.738281 205.921875 130.464844 207.910156 C 150.578125 208.804688 169.179688 214.777344 185.367188 224.320312 L 185.503906 224.457031 C 167.800781 235.300781 146.925781 241.34375 124.609375 241.34375 C 102.289062 241.34375 81.414062 235.097656 63.777344 224.457031 L 63.917969 224.320312 C 80.175781 214.707031 98.84375 208.871094 118.820312 207.910156 C 118.683594 205.921875 118.476562 203.929688 118.199219 201.9375 C 96.226562 203.039062 75.628906 209.765625 58.128906 220.613281 C 48.277344 214.019531 39.53125 205.785156 32.160156 196.378906 C 55.03125 180.175781 82.378906 169.878906 111.792969 167.613281 C 111.175781 165.488281 110.691406 163.359375 110.070312 161.300781 C 80.105469 163.769531 52.410156 174.34375 29.058594 190.679688 C 28.921875 190.816406 28.578125 191.023438 28.4375 191.160156 C 17.828125 175.851562 10.734375 157.730469 8.324219 138.164062 L 28.300781 138.164062 Z M 28.371094 138.097656 "/>
<path style=" stroke:none;fill-rule:nonzero;fill:rgb(13.72549%,9.411765%,8.235294%);fill-opacity:1;" d="M 141.277344 138.097656 C 146.238281 125.875 155.125 115.578125 166.148438 108.507812 C 171.660156 105.007812 178.132812 102.878906 185.023438 102.878906 C 188.261719 102.878906 191.359375 103.222656 194.53125 103.976562 C 203.484375 106.449219 210.167969 114.550781 210.167969 124.230469 C 210.167969 129.445312 208.167969 134.183594 205.070312 137.890625 L 176.480469 137.890625 C 176.480469 137.753906 176.480469 137.753906 176.480469 137.753906 C 176.480469 133.632812 179.855469 130.269531 183.988281 130.269531 L 188.328125 130.269531 C 192.324219 130.269531 195.425781 127.042969 195.425781 123.199219 C 195.425781 119.699219 192.945312 116.882812 189.570312 116.335938 C 187.847656 115.855469 185.917969 115.714844 183.921875 115.714844 C 171.589844 115.714844 161.667969 125.671875 161.667969 137.890625 L 161.667969 138.027344 L 141.277344 138.097656 M 140.246094 86.472656 C 140.382812 86.816406 140.519531 87.226562 140.589844 87.570312 C 143.550781 87.296875 146.582031 86.953125 149.546875 86.472656 L 235.175781 86.472656 C 239.03125 97.523438 241.304688 109.332031 241.511719 121.6875 L 229.523438 121.6875 L 229.523438 127.523438 L 241.511719 127.523438 C 241.375 131.023438 241.167969 134.457031 240.753906 137.957031 L 221.878906 137.957031 C 223.601562 133.703125 224.632812 129.035156 224.632812 124.160156 C 224.632812 104.527344 208.652344 88.601562 188.949219 88.601562 L 188.328125 88.738281 C 170.351562 88.738281 154.09375 95.601562 141.898438 106.792969 L 141.554688 107.136719 C 138.796875 100.269531 136.59375 93.472656 134.457031 86.335938 Z M 99.808594 86.472656 C 102.769531 86.953125 105.800781 87.363281 108.761719 87.570312 C 108.902344 87.226562 109.039062 86.816406 109.109375 86.472656 L 114.757812 86.472656 C 113.035156 92.71875 111.035156 98.761719 108.902344 104.871094 C 104.148438 118.324219 94.777344 129.652344 82.929688 137.203125 C 82.585938 137.476562 82.035156 137.683594 81.828125 137.957031 L 47.246094 137.957031 C 42.285156 134.113281 38.910156 128.003906 38.910156 121.277344 C 38.910156 109.675781 48.417969 100.40625 59.851562 100.40625 L 64.949219 100.269531 C 69.082031 100.269531 72.457031 103.632812 72.457031 107.753906 C 72.457031 111.871094 69.082031 115.234375 64.949219 115.234375 L 60.609375 115.234375 C 56.613281 115.234375 53.515625 118.460938 53.515625 122.308594 C 53.515625 125.808594 55.992188 128.621094 59.371094 129.171875 C 61.09375 129.515625 63.019531 129.789062 65.019531 129.789062 C 77.351562 129.789062 87.269531 119.835938 87.269531 107.617188 C 87.269531 97.320312 80.175781 88.601562 70.53125 86.199219 Z M 53.515625 86.472656 C 36.910156 89.425781 24.441406 104.046875 24.441406 121.414062 C 24.441406 127.386719 25.957031 133.085938 28.578125 138.097656 L 8.460938 137.957031 C 8.117188 134.457031 7.839844 131.09375 7.703125 127.523438 L 19.691406 127.523438 L 19.691406 121.6875 L 7.566406 121.6875 C 7.839844 109.402344 10.046875 97.523438 13.902344 86.472656 Z M 53.515625 86.472656 "/>
<path style=" stroke:none;fill-rule:nonzero;fill:rgb(13.72549%,9.411765%,8.235294%);fill-opacity:1;" d="M 149.476562 86.472656 C 175.722656 82.628906 199.902344 72.535156 220.636719 57.984375 C 226.769531 66.703125 231.59375 76.242188 235.242188 86.472656 L 149.476562 86.472656 M 109.039062 86.472656 C 109.519531 84.757812 110.003906 82.972656 110.554688 81.390625 C 81.691406 78.921875 54.890625 68.554688 32.433594 52.765625 C 39.804688 43.429688 48.554688 35.191406 58.265625 28.53125 C 75.488281 39.378906 95.742188 46.105469 117.167969 47.34375 C 117.441406 45.351562 117.648438 43.359375 117.925781 41.371094 C 98.292969 40.273438 79.96875 34.503906 63.847656 24.964844 C 81.550781 14.253906 102.289062 8.074219 124.539062 8.074219 C 146.789062 8.074219 167.457031 14.324219 185.230469 24.964844 C 169.246094 34.4375 150.921875 40.273438 131.152344 41.371094 C 131.289062 43.359375 131.632812 45.351562 131.910156 47.34375 C 153.402344 46.105469 173.449219 39.378906 190.742188 28.671875 C 200.59375 35.398438 209.339844 43.5 216.710938 52.835938 C 194.253906 68.761719 167.523438 78.851562 138.59375 81.324219 C 138.9375 82.972656 139.554688 84.6875 140.109375 86.402344 L 134.390625 86.402344 C 128.671875 66.839844 125.296875 46.3125 124.539062 25.101562 L 124.125 25.101562 C 123.230469 46.242188 119.855469 66.769531 114.410156 86.402344 Z M 14.039062 86.472656 C 17.554688 76.242188 22.515625 66.703125 28.644531 57.984375 C 49.242188 72.535156 73.5625 82.628906 99.808594 86.472656 L 70.738281 86.472656 C 69.015625 85.992188 67.085938 85.71875 65.085938 85.71875 L 59.4375 85.855469 C 57.304688 85.855469 55.304688 86.128906 53.308594 86.472656 Z M 14.039062 86.472656 "/>
<path style=" stroke:none;fill-rule:nonzero;fill:rgb(0%,1.568627%,47.45098%);fill-opacity:1;" d="M 124.675781 241.207031 C 102.355469 241.207031 81.484375 234.960938 63.847656 224.320312 L 63.984375 224.179688 C 80.242188 214.570312 98.910156 208.734375 118.890625 207.773438 C 118.75 205.785156 118.546875 203.792969 118.269531 201.800781 C 96.292969 202.898438 75.695312 209.628906 58.199219 220.472656 C 48.347656 213.882812 39.597656 205.644531 32.226562 196.242188 C 55.097656 180.039062 82.449219 169.742188 111.863281 167.476562 C 111.242188 165.347656 110.761719 163.222656 110.140625 161.160156 C 80.175781 163.632812 52.480469 174.207031 29.128906 190.542969 C 28.988281 190.679688 28.644531 190.886719 28.507812 191.023438 C 15.902344 172.832031 8.253906 151.070312 7.632812 127.59375 L 19.621094 127.59375 L 19.621094 121.757812 L 7.566406 121.757812 C 8.183594 98.140625 15.832031 76.242188 28.507812 57.914062 C 51.449219 74.183594 78.933594 84.757812 108.554688 87.503906 C 109.175781 85.375 109.796875 83.246094 110.417969 81.1875 C 81.550781 78.714844 54.753906 68.347656 32.296875 52.558594 C 39.667969 43.15625 48.347656 34.917969 58.128906 28.257812 C 75.351562 39.105469 95.605469 45.832031 117.03125 47.066406 C 117.304688 45.078125 117.511719 43.085938 117.789062 41.09375 C 98.152344 39.996094 79.828125 34.230469 63.710938 24.6875 C 81.414062 13.980469 102.148438 7.800781 124.402344 7.800781 C 146.652344 7.800781 167.320312 14.046875 185.09375 24.6875 C 169.109375 34.160156 150.785156 39.996094 131.015625 41.09375 C 131.152344 43.085938 131.496094 45.078125 131.773438 47.066406 C 153.265625 45.832031 173.3125 39.105469 190.601562 28.394531 C 200.453125 35.121094 209.203125 43.222656 216.574219 52.558594 C 194.117188 68.484375 167.386719 78.578125 138.453125 81.050781 C 139.074219 83.175781 139.695312 85.304688 140.3125 87.363281 C 170.003906 84.480469 197.355469 73.910156 220.363281 57.777344 C 233.109375 75.96875 240.683594 97.867188 241.304688 121.621094 L 229.320312 121.621094 L 229.320312 127.457031 L 241.238281 127.457031 C 240.617188 151.070312 232.96875 172.832031 220.363281 190.886719 C 220.226562 190.75 219.878906 190.542969 219.742188 190.40625 C 196.390625 174 168.695312 163.632812 138.730469 161.023438 C 138.109375 163.152344 137.628906 165.28125 137.007812 167.339844 C 166.492188 169.605469 193.910156 179.902344 216.644531 196.105469 C 209.273438 205.441406 200.523438 213.679688 190.808594 220.335938 C 173.175781 209.285156 152.714844 202.558594 130.738281 201.527344 C 130.464844 203.519531 130.394531 205.507812 130.117188 207.5 C 150.234375 208.390625 168.835938 214.363281 185.023438 223.90625 L 185.160156 224.042969 C 167.730469 235.097656 146.859375 241.207031 124.675781 241.207031 Z M 124.675781 220.542969 C 125.777344 192.671875 131.289062 165.898438 140.3125 140.910156 C 145.066406 127.457031 154.4375 116.128906 166.285156 108.578125 C 171.796875 105.074219 178.273438 102.949219 185.160156 102.949219 C 188.398438 102.949219 191.5 103.292969 194.667969 104.046875 C 203.621094 106.519531 210.304688 114.617188 210.304688 124.296875 C 210.304688 135.898438 200.796875 145.304688 189.363281 145.304688 L 184.058594 145.304688 C 179.925781 145.304688 176.550781 141.941406 176.550781 137.820312 C 176.550781 133.703125 179.925781 130.339844 184.058594 130.339844 L 188.398438 130.339844 C 192.394531 130.339844 195.492188 127.113281 195.492188 123.269531 C 195.492188 119.765625 193.015625 116.953125 189.636719 116.402344 C 187.917969 115.921875 185.988281 115.785156 183.988281 115.785156 C 171.660156 115.785156 161.738281 125.738281 161.738281 137.957031 C 161.738281 150.246094 171.726562 160.132812 183.988281 160.132812 L 189.636719 159.996094 C 209.273438 159.71875 224.839844 143.792969 224.839844 124.433594 C 224.839844 104.800781 208.859375 88.875 189.15625 88.875 L 188.535156 89.011719 C 170.554688 89.011719 154.296875 95.878906 142.105469 107.066406 L 141.761719 107.410156 C 131.496094 81.941406 125.777344 54.207031 124.8125 25.375 L 124.539062 25.375 C 123.4375 53.246094 117.925781 80.019531 108.902344 105.007812 C 104.148438 118.460938 94.777344 129.789062 82.929688 137.339844 C 77.417969 140.84375 70.941406 142.96875 64.054688 142.96875 C 60.816406 142.96875 57.578125 142.625 54.546875 141.871094 C 45.59375 139.398438 39.046875 131.300781 39.046875 121.621094 C 39.046875 110.019531 48.554688 100.75 59.988281 100.75 L 65.085938 100.613281 C 69.222656 100.613281 72.597656 103.976562 72.597656 108.097656 C 72.597656 112.214844 69.222656 115.578125 65.085938 115.578125 L 60.746094 115.578125 C 56.75 115.578125 53.652344 118.804688 53.652344 122.648438 C 53.652344 126.152344 56.132812 128.964844 59.507812 129.515625 C 61.230469 129.859375 63.160156 130.132812 65.15625 130.132812 C 77.488281 130.132812 87.40625 120.179688 87.40625 107.960938 C 87.40625 95.671875 77.417969 85.785156 65.15625 85.785156 L 59.507812 85.921875 C 39.875 86.199219 24.167969 102.125 24.167969 121.484375 C 24.167969 141.117188 40.148438 157.042969 59.851562 157.042969 L 60.472656 156.90625 C 78.453125 156.90625 94.710938 150.039062 106.902344 138.851562 L 107.246094 138.371094 C 117.375 163.976562 123.230469 191.640625 124.195312 220.613281 L 124.675781 220.613281 Z M 124.675781 220.542969 "/>
</g>
</svg>
